<svg xmlns="http://www.w3.org/2000/svg" width="32" height="32" viewBox="0 0 32 32" fill="none">
    <circle cx="16" cy="16" r="15" fill="#535A66" stroke="#363F4C" strokeWidth="2" />
    <path
      d="M23.9532 8.35429C23.9103 8.24994 23.8375 8.16061 23.7439 8.09756C23.6504 8.03452 23.5403 8.00057 23.4275 8.00001H20.5703C20.4951 7.99957 20.4206 8.01399 20.351 8.04243C20.2813 8.07086 20.218 8.11276 20.1646 8.16572L16.4046 11.9314C16.3515 11.985 16.2883 12.0275 16.2187 12.0565C16.149 12.0855 16.0744 12.1004 15.9989 12.1004C15.9235 12.1004 15.8488 12.0855 15.7792 12.0565C15.7095 12.0275 15.6463 11.985 15.5932 11.9314L11.8332 8.16572C11.7798 8.11276 11.7165 8.07086 11.6469 8.04243C11.5773 8.01399 11.5027 7.99957 11.4275 8.00001H8.57039C8.45757 8.00057 8.34745 8.03452 8.2539 8.09756C8.16034 8.16061 8.08755 8.24994 8.04468 8.35429C8.00092 8.45836 7.98896 8.57305 8.01032 8.6839C8.03168 8.79475 8.08539 8.89679 8.16468 8.97715L13.9761 14.7885C14.2415 15.0546 14.5568 15.2657 14.9039 15.4098C15.251 15.5538 15.6231 15.6279 15.9989 15.6279C16.3747 15.6279 16.7469 15.5538 17.094 15.4098C17.4411 15.2657 17.7564 15.0546 18.0218 14.7885L23.8332 8.97715C23.9125 8.89679 23.9662 8.79475 23.9875 8.6839C24.0089 8.57305 23.9969 8.45836 23.9532 8.35429Z"
      fill="#EBEBF2"
    />
    <path
      d="M23.9533 8.35429C23.9104 8.24994 23.8376 8.16061 23.744 8.09756C23.6505 8.03452 23.5404 8.00057 23.4275 8.00001H20.5704C20.4952 7.99957 20.4207 8.01399 20.351 8.04243C20.2814 8.07086 20.2181 8.11276 20.1647 8.16572L16.4047 11.9314C16.3513 11.9844 16.288 12.0263 16.2184 12.0547C16.1488 12.0832 16.0742 12.0976 15.999 12.0971V15.6228C16.3745 15.6235 16.7464 15.5502 17.0935 15.407C17.4406 15.2639 17.756 15.0537 18.0219 14.7885L23.8333 8.97715C23.9125 8.89679 23.9663 8.79475 23.9876 8.6839C24.009 8.57305 23.997 8.45836 23.9533 8.35429Z"
      fill="#D1D0EA"
    />
    <path
      d="M23.8332 23.0228L18.0218 17.2114C17.7564 16.9453 17.4411 16.7342 17.094 16.5902C16.7469 16.4462 16.3747 16.372 15.9989 16.372C15.6231 16.372 15.251 16.4462 14.9039 16.5902C14.5568 16.7342 14.2415 16.9453 13.9761 17.2114L8.16468 23.0228C8.08539 23.1032 8.03168 23.2052 8.01032 23.3161C7.98896 23.4269 8.00092 23.5416 8.04468 23.6457C8.08755 23.75 8.16034 23.8393 8.2539 23.9024C8.34745 23.9654 8.45757 23.9994 8.57039 24H11.4275C11.5027 24.0004 11.5773 23.986 11.6469 23.9575C11.7165 23.9291 11.7798 23.8872 11.8332 23.8342L15.5932 20.0685C15.6463 20.015 15.7095 19.9725 15.7792 19.9435C15.8488 19.9144 15.9235 19.8995 15.9989 19.8995C16.0744 19.8995 16.149 19.9144 16.2187 19.9435C16.2883 19.9725 16.3515 20.015 16.4046 20.0685L20.1646 23.8342C20.218 23.8872 20.2813 23.9291 20.351 23.9575C20.4206 23.986 20.4951 24.0004 20.5703 24H23.4275C23.5403 23.9994 23.6504 23.9654 23.7439 23.9024C23.8375 23.8393 23.9103 23.75 23.9532 23.6457C23.9969 23.5416 24.0089 23.4269 23.9875 23.3161C23.9662 23.2052 23.9125 23.1032 23.8332 23.0228Z"
      fill="#EBEBF2"
    />
    <path
      d="M23.8333 23.0228L18.0219 17.2114C17.756 16.9463 17.4406 16.7361 17.0935 16.593C16.7464 16.4498 16.3745 16.3765 15.999 16.3771V19.9028C16.0742 19.9024 16.1488 19.9168 16.2184 19.9453C16.288 19.9737 16.3513 20.0156 16.4047 20.0686L20.1647 23.8343C20.2181 23.8872 20.2814 23.9291 20.351 23.9576C20.4207 23.986 20.4952 24.0004 20.5704 24H23.4275C23.5404 23.9994 23.6505 23.9655 23.744 23.9024C23.8376 23.8394 23.9104 23.75 23.9533 23.6457C23.997 23.5416 24.009 23.4269 23.9876 23.3161C23.9663 23.2052 23.9125 23.1032 23.8333 23.0228Z"
      fill="#D1D0EA"
    />
  </svg>