<svg xmlns="http://www.w3.org/2000/svg" width="32" height="32" viewBox="0 0 32 32" fill="none">
    <circle cx="16" cy="16" r="15" fill="#FFBF5F" stroke="#FFA41D" strokeWidth="2" />
    <path
      d="M24.1985 15.7197C24.1399 13.9452 23.5109 12.2533 22.3798 10.827C20.9694 9.04822 18.7108 7.99143 16.3381 8.00005L11.524 8.01751C10.862 8.01994 10.3273 8.55854 10.3297 9.22054L10.3494 14.6671C10.3497 14.7485 10.284 14.8146 10.2026 14.8149L8.2282 14.8221C7.58278 14.8244 7.02923 15.3224 7.00116 15.9673C6.97125 16.6557 7.52179 17.222 8.20301 17.2196L10.2112 17.2123C10.2926 17.212 10.3588 17.2777 10.3591 17.3591L10.3788 22.8057C10.3813 23.4677 10.9199 24.0024 11.5819 24L16.3923 23.9825C18.7646 23.9739 21.015 22.9014 22.412 21.1135C23.6277 19.5577 24.2623 17.6422 24.1985 15.7197ZM20.523 19.6374C19.5747 20.8511 18.0273 21.5791 16.3838 21.5851L12.9193 21.5976C12.8379 21.5979 12.7718 21.5322 12.7715 21.4508L12.7566 17.3503C12.7563 17.2689 12.822 17.2027 12.9034 17.2024L16.4821 17.1895C17.1275 17.1871 17.6811 16.6891 17.7091 16.0443C17.739 15.3558 17.1885 14.7895 16.5073 14.7919L12.8947 14.8051C12.8133 14.8054 12.7472 14.7396 12.7469 14.6582L12.732 10.5577C12.7317 10.4763 12.7974 10.4102 12.8788 10.4099L16.3468 10.3973C17.9908 10.3913 19.5439 11.1087 20.5015 12.3164C21.3111 13.3373 21.761 14.5415 21.8026 15.7988C21.8475 17.1606 21.3931 18.5238 20.523 19.6374Z"
      fill="white"
    />
  </svg>