<svg xmlns="http://www.w3.org/2000/svg" width="32" height="32" viewBox="0 0 32 32" fill="none">
    <circle cx="16" cy="16" r="15" fill="#2D9B78" stroke="#49C196" strokeWidth="2" />
    <path
      d="M25.4615 16C25.4615 14.2068 20.8068 13.7188 18.0769 13.5871V11.6923H23.6154V8H8.84615V11.6923H14.3846V13.5871C11.6548 13.7188 7 14.2068 7 16C7 17.7932 11.6548 18.2812 14.3846 18.4129V24H18.0769V18.4129C20.8068 18.2812 25.4615 17.7932 25.4615 16ZM16.2308 17.2308C11.6769 17.2308 8.81723 16.4788 8.28246 16C8.74092 15.5895 10.9108 14.9803 14.3846 14.8142V16H18.0769V14.8142C21.5508 14.9803 23.7206 15.5895 24.1791 16C23.6443 16.4788 20.7846 17.2308 16.2308 17.2308Z"
      fill="white"
    />
  </svg>