<svg width="22" height="20" viewBox="0 0 22 20" fill="none" xmlns="http://www.w3.org/2000/svg">
<path fill-rule="evenodd" clip-rule="evenodd" d="M11 17C16.5228 17 21 13.4183 21 9C21 4.58172 16.5228 1 11 1C5.47715 1 1 4.58172 1 9C1 12.056 3.14193 14.7118 6.2903 16.059C6.40046 17.2015 6.28812 18.4746 5.49999 19C4.15288 19.8981 7.64497 19.1831 9.09517 16.855C9.71182 16.9502 10.3486 17 11 17Z" fill="#181600"/>
<path d="M6.2903 16.059L6.788 16.011L6.75955 15.7159L6.487 15.5993L6.2903 16.059ZM5.49999 19L5.77734 19.416H5.77734L5.49999 19ZM9.09517 16.855L9.17141 16.3609L8.84526 16.3106L8.67078 16.5907L9.09517 16.855ZM20.5 9C20.5 13.0438 16.3566 16.5 11 16.5V17.5C16.6891 17.5 21.5 13.7928 21.5 9H20.5ZM11 1.5C16.3566 1.5 20.5 4.95621 20.5 9H21.5C21.5 4.20723 16.6891 0.5 11 0.5V1.5ZM1.5 9C1.5 4.95621 5.64341 1.5 11 1.5V0.5C5.31089 0.5 0.5 4.20723 0.5 9H1.5ZM6.487 15.5993C3.46867 14.3078 1.5 11.8031 1.5 9H0.5C0.5 12.3089 2.81519 15.1158 6.09361 16.5187L6.487 15.5993ZM5.77734 19.416C6.32352 19.0519 6.59426 18.4569 6.72091 17.8656C6.84853 17.2698 6.84572 16.6097 6.788 16.011L5.79261 16.107C5.84505 16.6508 5.84114 17.1985 5.74309 17.6562C5.64408 18.1184 5.46459 18.4227 5.22264 18.584L5.77734 19.416ZM8.67078 16.5907C8.02126 17.6334 6.89026 18.3392 6.06148 18.6737C5.85821 18.7557 5.68285 18.8113 5.5478 18.8433C5.3955 18.8794 5.34293 18.8737 5.36002 18.8761C5.36953 18.8775 5.39916 18.8823 5.4386 18.8996C5.47789 18.9167 5.54507 18.9542 5.60348 19.0301C5.75202 19.223 5.68591 19.4232 5.65637 19.4829C5.63047 19.5353 5.60718 19.5481 5.63805 19.5201C5.66191 19.4985 5.7057 19.4638 5.77734 19.416L5.22264 18.584C5.12589 18.6485 5.0391 18.7134 4.96682 18.7789C4.90156 18.838 4.81658 18.9253 4.76008 19.0394C4.69993 19.161 4.6343 19.4104 4.81106 19.64C4.94854 19.8186 5.14445 19.8555 5.21896 19.8661C5.39666 19.8914 5.60216 19.8582 5.77852 19.8163C5.97213 19.7704 6.19601 19.6977 6.4357 19.601C7.37874 19.2204 8.71888 18.4048 9.51957 17.1194L8.67078 16.5907ZM11 16.5C10.3741 16.5 9.7628 16.4521 9.17141 16.3609L9.01893 17.3492C9.66084 17.4482 10.3231 17.5 11 17.5V16.5Z" fill="#181600"/>
</svg>
