<svg width="23" height="22" viewBox="0 0 23 22" fill="none" xmlns="http://www.w3.org/2000/svg">
<path fill-rule="evenodd" clip-rule="evenodd" d="M4.67846 11.0583C5.19857 10.8725 5.77079 11.1436 5.95654 11.6637L8.44843 18.641C8.53119 18.8351 8.68585 18.9899 8.88034 19.0728C9.0796 19.1577 9.30438 19.1601 9.50542 19.0796C9.70612 18.9984 9.86648 18.841 9.95136 18.6418C10.0364 18.4424 10.0387 18.2173 9.95795 18.0161C9.95022 17.9969 9.9431 17.9774 9.93658 17.9577L8.56543 13.8142C8.39192 13.2899 8.67632 12.7242 9.20064 12.5507C9.72496 12.3772 10.2907 12.6615 10.4642 13.1859L11.8266 17.3031C12.0918 17.9878 12.0795 18.7496 11.7913 19.4259C11.4985 20.1128 10.9451 20.6555 10.2526 20.9348L10.2512 20.9354C9.55823 21.2136 8.7832 21.2054 8.09626 20.9127C7.40933 20.6199 6.86664 20.0666 6.58737 19.374C6.58235 19.3616 6.57757 19.349 6.57306 19.3364L4.07306 12.3364C3.8873 11.8163 4.15835 11.244 4.67846 11.0583Z" fill="#828282"/>
<path fill-rule="evenodd" clip-rule="evenodd" d="M17.7022 0.804413C17.87 1.3306 17.5794 1.89316 17.0532 2.06093L3.13619 6.49812L3.11764 6.50384C2.76766 6.60798 2.46516 6.83133 2.26261 7.13516C2.06006 7.43898 1.97024 7.80411 2.00871 8.16723C2.01613 8.23728 2.01613 8.30791 2.00871 8.37796C1.97024 8.74108 2.06006 9.10621 2.26261 9.41003C2.46516 9.71386 2.76766 9.93721 3.11764 10.0414L3.13619 10.0471L17.0532 14.4843C17.5794 14.652 17.87 15.2146 17.7022 15.7408C17.5344 16.267 16.9719 16.5575 16.4457 16.3898L2.53715 11.9553C1.74376 11.7166 1.0582 11.209 0.59851 10.5194C0.156468 9.85637 -0.0500074 9.06518 0.010257 8.27259C-0.0500074 7.48 0.156468 6.68882 0.59851 6.02576C1.0582 5.33622 1.74376 4.82855 2.53715 4.58992L16.4457 0.155432C16.9719 -0.0123331 17.5344 0.278225 17.7022 0.804413Z" fill="#828282"/>
<path fill-rule="evenodd" clip-rule="evenodd" d="M15.7008 3.57731C15.1258 4.72727 14.7413 6.38591 14.7413 8.27259C14.7413 10.1593 15.1258 11.8179 15.7008 12.9679C16.3057 14.1777 16.9563 14.5452 17.3776 14.5452C17.7989 14.5452 18.4496 14.1777 19.0545 12.9679C19.6294 11.8179 20.0139 10.1593 20.0139 8.27259C20.0139 6.38591 19.6294 4.72727 19.0545 3.57731C18.4496 2.36753 17.7989 2 17.3776 2C16.9563 2 16.3057 2.36753 15.7008 3.57731ZM13.912 2.68288C14.6231 1.26049 15.7907 0 17.3776 0C18.9646 0 20.1321 1.26049 20.8433 2.68288C21.5844 4.16508 22.0139 6.14274 22.0139 8.27259C22.0139 10.4024 21.5844 12.3801 20.8433 13.8623C20.1321 15.2847 18.9646 16.5452 17.3776 16.5452C15.7907 16.5452 14.6231 15.2847 13.912 13.8623C13.1709 12.3801 12.7413 10.4024 12.7413 8.27259C12.7413 6.14274 13.1709 4.16508 13.912 2.68288Z" fill="#828282"/>
<path d="M18.6275 8.27261C18.6263 7.60478 18.3793 6.96077 17.9336 6.46342C17.4879 5.96608 16.8747 5.6502 16.211 5.57605C16.0005 6.45933 15.8961 7.36459 15.9001 8.27261C15.8961 9.18063 16.0005 10.0859 16.211 10.9692C16.8747 10.895 17.4879 10.5791 17.9336 10.0818C18.3793 9.58445 18.6263 8.94044 18.6275 8.27261Z" fill="#828282"/>
</svg>
