<svg width="24" height="20" viewBox="0 0 24 20" fill="none" xmlns="http://www.w3.org/2000/svg">
<path fill-rule="evenodd" clip-rule="evenodd" d="M3 5C3.55228 5 4 5.44772 4 6V18H20V6C20 5.44772 20.4477 5 21 5C21.5523 5 22 5.44772 22 6V19C22 19.5523 21.5523 20 21 20H3C2.44772 20 2 19.5523 2 19V6C2 5.44772 2.44772 5 3 5Z" fill="#828282"/>
<path fill-rule="evenodd" clip-rule="evenodd" d="M0 1C0 0.447715 0.447715 0 1 0H23C23.5523 0 24 0.447715 24 1V6C24 6.55228 23.5523 7 23 7H1C0.447715 7 0 6.55228 0 6V1ZM2 2V5H22V2H2Z" fill="#828282"/>
<path fill-rule="evenodd" clip-rule="evenodd" d="M9 10C9 9.44772 9.44772 9 10 9H14C14.5523 9 15 9.44772 15 10C15 10.5523 14.5523 11 14 11H10C9.44772 11 9 10.5523 9 10Z" fill="#828282"/>
</svg>
