<svg xmlns="http://www.w3.org/2000/svg" viewBox="0 0 100 125" x="0px" y="0px"><defs><style>.cls-1{fill:none;stroke:#000;stroke-linecap:round;stroke-linejoin:round;stroke-width:3px;}</style></defs><title>star</title><g><path class="cls-1" d="M70.24,48.37a3,3,0,0,0-1.68-5.17l-9.37-1.36a3,3,0,0,1-2.28-1.66l-4.19-8.49a3,3,0,0,0-5.44,0l-4.19,8.49a3,3,0,0,1-2.28,1.66L31.44,43.2a3,3,0,0,0-1.68,5.17L36.54,55a3,3,0,0,1,.87,2.68L35.81,67a3,3,0,0,0,4.4,3.2l8.38-4.4a3,3,0,0,1,2.82,0l8.38,4.4a3,3,0,0,0,4.4-3.2l-1.6-9.33A3,3,0,0,1,63.46,55Z"/></g></svg>