<?xml version="1.0" encoding="UTF-8" standalone="no"?><!DOCTYPE svg PUBLIC "-//W3C//DTD SVG 1.1//EN" "http://www.w3.org/Graphics/SVG/1.1/DTD/svg11.dtd"><svg width="100%" height="100%" viewBox="0 0 975 440" version="1.1" xmlns="http://www.w3.org/2000/svg" xmlns:xlink="http://www.w3.org/1999/xlink" xml:space="preserve" xmlns:serif="http://www.serif.com/" style="fill-rule:evenodd;clip-rule:evenodd;stroke-linejoin:round;stroke-miterlimit:2;"><rect id="clear-rev" x="0" y="0" width="974.836" height="440" style="fill:none;"/><g><circle cx="55" cy="67.5" r="35" style="fill:#fefefe;"/><g><g><path d="M215,357.5l0,50c-99.345,0 -180,-80.655 -180,-180c0,-99.345 80.655,-180 180,-180c99.345,0 180,80.655 180,180l-50,0c0,-71.749 -58.251,-130 -130,-130c-71.749,0 -130,58.251 -130,130c0,71.749 58.251,130 130,130Z" style="fill:#ff8900;"/><path d="M295,227.5c-0,44.153 -35.847,80 -80,80c-44.153,0 -80,-35.847 -80,-80c0,-44.153 35.847,-80 80,-80l0,80l80,0Z" style="fill:#fefefe;"/><path d="M215,357.5c71.749,0 130,-58.251 130,-130l50,0l-0.234,9.257c-4.833,95.058 -83.531,170.743 -179.766,170.743l0,-180l0,130Z" style="fill:none;"/></g><path d="M304.084,357.115l-116.584,0l25.208,50.416l116.584,-0l-25.208,-50.416Z" style="fill:#ff8900;"/></g></g><g><g><path d="M346.779,407.691c-0.996,-0 -1.698,-0.182 -2.105,-0.544c-0.408,-0.362 -0.612,-1.087 -0.612,-2.173l0,-99.17c0,-1.811 0.906,-2.717 2.717,-2.717l13.042,0c1.811,0 2.717,0.906 2.717,2.717l-0,99.17c-0,1.086 -0.204,1.811 -0.611,2.173c-0.408,0.362 -1.11,0.544 -2.106,0.544l-13.042,-0Z" style="fill:#fefefe;fill-rule:nonzero;"/><path d="M472.439,407.691c-1.177,-0 -1.901,-0.159 -2.173,-0.476c-0.272,-0.317 -0.408,-1.019 -0.408,-2.106l0,-68.196l-26.49,67.789c-0.453,0.996 -0.861,1.63 -1.223,1.902c-0.362,0.271 -1.041,0.407 -2.038,0.407l-11.818,0c-0.997,0 -1.698,-0.136 -2.106,-0.407c-0.408,-0.272 -0.792,-0.906 -1.155,-1.902l-26.49,-67.789l-0,68.196c-0,1.087 -0.136,1.789 -0.408,2.106c-0.271,0.317 -0.996,0.476 -2.173,0.476l-13.314,-0c-1.177,-0 -1.901,-0.159 -2.173,-0.476c-0.272,-0.317 -0.408,-1.019 -0.408,-2.106l0,-97.946c0,-1.902 0.204,-3.057 0.612,-3.465c0.407,-0.407 1.517,-0.611 3.328,-0.611l15.215,0c0.815,0 1.449,0.136 1.902,0.408c0.453,0.271 0.86,0.86 1.223,1.766l31.788,78.928l31.925,-78.928c0.543,-1.449 1.675,-2.174 3.396,-2.174l14.807,0c1.902,0 3.057,0.204 3.464,0.611c0.408,0.408 0.612,1.563 0.612,3.465l-0,97.946c-0,1.087 -0.159,1.789 -0.476,2.106c-0.317,0.317 -1.019,0.476 -2.105,0.476l-13.314,-0Z" style="fill:#fefefe;fill-rule:nonzero;"/><path d="M582.884,406.332c-2.626,0.906 -5.728,1.676 -9.305,2.31c-3.578,0.633 -7.812,0.95 -12.702,0.95c-7.789,0 -14.921,-1.29 -21.396,-3.871c-6.476,-2.581 -12.023,-6.249 -16.642,-11.004c-4.619,-4.755 -8.219,-10.46 -10.8,-17.117c-2.581,-6.656 -3.871,-14.06 -3.871,-22.211c-0,-7.97 1.29,-15.283 3.871,-21.94c2.581,-6.656 6.181,-12.362 10.8,-17.117c4.619,-4.754 10.166,-8.445 16.642,-11.071c6.475,-2.627 13.607,-3.94 21.396,-3.94c4.075,0 8.015,0.249 11.819,0.747c3.803,0.498 7.335,1.246 10.596,2.242c1.268,0.453 1.924,0.996 1.97,1.63c0.045,0.634 0.068,1.404 0.068,2.309l-0.272,11.683c-0,1.54 -0.362,2.4 -1.087,2.582c-0.724,0.181 -1.902,0.045 -3.532,-0.408c-4.075,-1.177 -7.721,-1.97 -10.936,-2.377c-3.215,-0.408 -6.543,-0.612 -9.985,-0.612c-5.071,0 -9.622,0.883 -13.652,2.649c-4.031,1.766 -7.449,4.257 -10.257,7.472c-2.808,3.215 -4.958,7.041 -6.453,11.479c-1.494,4.438 -2.241,9.328 -2.241,14.672c-0,5.253 0.815,10.075 2.445,14.468c1.63,4.392 3.894,8.196 6.792,11.411c2.899,3.215 6.317,5.796 10.257,7.743c3.94,1.948 8.264,3.148 12.974,3.6c4.347,0.453 8.513,0.295 12.498,-0.475c3.984,-0.77 7.245,-1.608 9.781,-2.513c1.177,-0.453 1.947,-0.566 2.309,-0.34c0.362,0.227 0.589,0.793 0.679,1.698l0.68,12.227c0.09,0.996 -0.046,1.675 -0.408,2.037c-0.362,0.363 -1.041,0.725 -2.038,1.087Z" style="fill:#fefefe;fill-rule:nonzero;"/><path d="M680.288,394.377c-4.257,5.344 -9.283,9.283 -15.079,11.819c-5.797,2.536 -12.363,3.804 -19.698,3.804c-8.151,0 -15.148,-1.472 -20.989,-4.415c-5.842,-2.943 -10.642,-6.928 -14.4,-11.955c-3.759,-5.026 -6.521,-10.822 -8.287,-17.388c-1.766,-6.566 -2.649,-13.472 -2.649,-20.717c0,-7.064 0.906,-13.879 2.717,-20.445c1.811,-6.567 4.619,-12.363 8.423,-17.389c3.803,-5.027 8.603,-9.034 14.4,-12.023c5.796,-2.988 12.724,-4.483 20.785,-4.483c7.969,0 14.852,1.517 20.649,4.551c5.796,3.034 10.596,7.064 14.399,12.091c3.804,5.026 6.634,10.8 8.491,17.32c1.857,6.521 2.74,13.314 2.649,20.378c-0.091,7.969 -1.041,15.192 -2.853,21.668c-1.811,6.475 -4.664,12.203 -8.558,17.184Zm-34.777,-76.346c-4.71,-0 -8.763,1.064 -12.159,3.192c-3.396,2.128 -6.204,4.958 -8.423,8.49c-2.218,3.533 -3.849,7.54 -4.89,12.023c-1.042,4.483 -1.562,9.079 -1.562,13.789c-0,4.709 0.52,9.305 1.562,13.788c1.041,4.483 2.672,8.491 4.89,12.023c2.219,3.532 5.027,6.385 8.423,8.558c3.396,2.174 7.449,3.261 12.159,3.261c4.618,-0 8.626,-1.087 12.022,-3.261c3.396,-2.173 6.181,-5.026 8.355,-8.558c2.173,-3.532 3.781,-7.562 4.822,-12.091c1.042,-4.528 1.563,-9.101 1.563,-13.72c-0,-4.529 -0.521,-9.034 -1.563,-13.517c-1.041,-4.483 -2.649,-8.491 -4.822,-12.023c-2.174,-3.532 -4.936,-6.407 -8.287,-8.626c-3.351,-2.219 -7.381,-3.328 -12.09,-3.328Z" style="fill:#fefefe;fill-rule:nonzero;"/><path d="M758.537,400.219c-2.355,2.626 -5.48,4.777 -9.374,6.453c-3.894,1.675 -7.879,2.694 -11.955,3.056c-2.173,0.272 -4.641,0.317 -7.403,0.136c-2.763,-0.181 -5.457,-0.475 -8.083,-0.883c-2.627,-0.407 -5.027,-0.86 -7.2,-1.358c-2.174,-0.498 -3.804,-0.974 -4.891,-1.427c-0.996,-0.453 -1.63,-0.883 -1.902,-1.29c-0.272,-0.408 -0.317,-1.155 -0.136,-2.242l1.359,-13.177c0.09,-0.906 0.294,-1.449 0.611,-1.63c0.317,-0.181 1.019,-0.046 2.106,0.407c1.721,0.725 3.69,1.381 5.909,1.97c2.219,0.589 4.483,1.042 6.793,1.359c2.309,0.316 4.573,0.52 6.792,0.611c2.219,0.09 4.234,-0.091 6.045,-0.544c3.804,-0.905 6.521,-2.4 8.151,-4.483c1.63,-2.083 2.446,-5.071 2.446,-8.966c-0,-0.815 -0.182,-1.766 -0.544,-2.852c-0.362,-1.087 -1.041,-2.287 -2.038,-3.6c-0.996,-1.314 -2.332,-2.695 -4.007,-4.144c-1.676,-1.449 -3.827,-2.988 -6.453,-4.619c-4.981,-3.079 -9.215,-5.932 -12.702,-8.558c-3.487,-2.626 -6.339,-5.23 -8.558,-7.811c-2.219,-2.581 -3.849,-5.231 -4.891,-7.948c-1.041,-2.716 -1.562,-5.705 -1.562,-8.966c-0,-4.075 0.838,-7.856 2.513,-11.343c1.676,-3.487 3.985,-6.521 6.928,-9.102c2.944,-2.581 6.408,-4.596 10.393,-6.045c3.985,-1.449 8.287,-2.174 12.905,-2.174c4.619,0 8.582,0.34 11.887,1.019c3.306,0.68 6.045,1.517 8.219,2.513c1.177,0.544 1.834,0.997 1.97,1.359c0.136,0.362 0.113,1.041 -0.068,2.038l-2.581,11.547c-0.181,0.815 -0.498,1.313 -0.951,1.494c-0.453,0.181 -1.359,0.045 -2.717,-0.407c-4.257,-1.359 -8.174,-2.174 -11.751,-2.446c-3.577,-0.271 -6.679,0.046 -9.306,0.951c-2.626,0.906 -4.686,2.332 -6.181,4.28c-1.494,1.947 -2.241,4.415 -2.241,7.403c-0,2.174 0.973,4.393 2.92,6.657c1.948,2.264 5.095,4.709 9.442,7.336c5.524,3.441 10.121,6.52 13.789,9.237c3.667,2.717 6.588,5.366 8.762,7.948c2.173,2.581 3.713,5.207 4.619,7.879c0.905,2.671 1.358,5.637 1.358,8.898c0,4.347 -0.747,8.287 -2.241,11.819c-1.495,3.532 -3.555,6.747 -6.181,9.645Z" style="fill:#fefefe;fill-rule:nonzero;"/><path d="M847.517,401.849c-3.441,2.717 -7.268,4.732 -11.479,6.045c-4.211,1.314 -8.717,1.97 -13.517,1.97c-4.89,0 -9.373,-0.634 -13.449,-1.902c-4.075,-1.268 -7.834,-3.305 -11.275,-6.113c-4.71,-3.713 -8.128,-8.264 -10.257,-13.653c-2.128,-5.388 -3.192,-11.524 -3.192,-18.407l-0,-63.713c-0,-0.815 0.158,-1.517 0.475,-2.106c0.317,-0.589 1.064,-0.883 2.242,-0.883l13.041,0c1.812,0 2.717,0.906 2.717,2.717l0,65.343c0,6.612 1.698,11.887 5.095,15.827c3.396,3.939 8.264,5.909 14.603,5.909c6.43,0 11.321,-1.924 14.672,-5.773c3.351,-3.85 5.026,-9.17 5.026,-15.963l0,-65.343c0,-1.811 0.906,-2.717 2.717,-2.717l13.042,0c1.177,0 1.924,0.294 2.241,0.883c0.317,0.589 0.476,1.291 0.476,2.106l-0,63.713c-0,6.792 -1.087,12.928 -3.261,18.407c-2.173,5.48 -5.479,10.03 -9.917,13.653Z" style="fill:#fefefe;fill-rule:nonzero;"/><path d="M943.562,407.691c-1.086,-0 -1.811,-0.114 -2.173,-0.34c-0.363,-0.226 -0.815,-0.838 -1.359,-1.834l-39.26,-71.592l0,70.505c0,1.449 -0.136,2.355 -0.408,2.717c-0.271,0.362 -1.132,0.544 -2.581,0.544l-12.362,-0c-1.358,-0 -2.219,-0.182 -2.581,-0.544c-0.362,-0.362 -0.543,-1.268 -0.543,-2.717l-0,-97.947c-0,-1.539 0.158,-2.535 0.475,-2.988c0.317,-0.453 1.291,-0.68 2.921,-0.68l13.449,0c1.087,0 1.811,0.136 2.173,0.408c0.363,0.272 0.861,0.996 1.495,2.174l38.717,71.048l-0,-70.369c-0,-1.359 0.158,-2.242 0.475,-2.649c0.317,-0.408 1.155,-0.612 2.513,-0.612l12.227,0c1.63,0 2.581,0.227 2.852,0.68c0.272,0.453 0.408,1.313 0.408,2.581l-0,97.811c-0,1.721 -0.181,2.785 -0.543,3.192c-0.363,0.408 -1.359,0.612 -2.989,0.612l-12.906,-0Z" style="fill:#fefefe;fill-rule:nonzero;"/></g><g><path d="M349.729,257.708l0,7.75l9.625,0c0.333,0 0.549,0.063 0.646,0.188c0.097,0.125 0.146,0.34 0.146,0.646l-0,3.583c-0,0.306 -0.049,0.521 -0.146,0.646c-0.097,0.125 -0.313,0.187 -0.646,0.187l-9.625,0l0,12.834c0,0.389 -0.055,0.646 -0.167,0.771c-0.111,0.125 -0.333,0.187 -0.666,0.187l-3.959,0c-0.333,0 -0.562,-0.056 -0.687,-0.167c-0.125,-0.111 -0.188,-0.375 -0.188,-0.791l0,-30.042c0,-0.444 0.056,-0.736 0.167,-0.875c0.111,-0.139 0.361,-0.208 0.75,-0.208l14.917,-0c0.305,-0 0.514,0.062 0.625,0.187c0.111,0.125 0.166,0.34 0.166,0.646l0,3.625c0,0.306 -0.048,0.521 -0.145,0.646c-0.098,0.125 -0.313,0.187 -0.646,0.187l-10.167,0Z" style="fill:#fefefe;fill-rule:nonzero;"/><path d="M379.229,284.583c-0.305,0 -0.507,-0.041 -0.604,-0.125c-0.097,-0.083 -0.146,-0.236 -0.146,-0.458l0,-1.583c-0.25,0.389 -0.576,0.743 -0.979,1.062c-0.403,0.32 -0.84,0.59 -1.313,0.813c-0.472,0.222 -0.958,0.402 -1.458,0.541c-0.5,0.139 -0.972,0.209 -1.417,0.209c-2.722,-0 -4.763,-0.806 -6.125,-2.417c-1.361,-1.611 -2.041,-3.903 -2.041,-6.875l-0,-13.833c-0,-0.306 0.055,-0.528 0.166,-0.667c0.112,-0.139 0.32,-0.208 0.625,-0.208l3.834,-0c0.333,-0 0.555,0.09 0.666,0.271c0.112,0.18 0.167,0.395 0.167,0.645l0,13.084c0,0.972 0.077,1.771 0.229,2.396c0.153,0.625 0.368,1.125 0.646,1.5c0.278,0.375 0.618,0.638 1.021,0.791c0.403,0.153 0.854,0.229 1.354,0.229c1.222,0 2.257,-0.479 3.104,-1.437c0.848,-0.958 1.271,-2.452 1.271,-4.479l0,-12.125c0,-0.306 0.056,-0.528 0.167,-0.667c0.111,-0.139 0.319,-0.208 0.625,-0.208l3.875,-0c0.333,-0 0.548,0.097 0.646,0.291c0.097,0.195 0.145,0.417 0.145,0.667l0,16.708c0,0.834 0.014,1.702 0.042,2.605c0.028,0.902 0.042,1.701 0.042,2.395c-0,0.361 -0.035,0.598 -0.104,0.709c-0.07,0.111 -0.299,0.166 -0.688,0.166l-3.75,0Z" style="fill:#fefefe;fill-rule:nonzero;"/><path d="M401.646,284.208c-0.556,0.25 -1.222,0.466 -2,0.646c-0.778,0.181 -1.667,0.257 -2.667,0.229c-1.028,-0.027 -1.958,-0.284 -2.792,-0.77c-0.833,-0.487 -1.444,-1.077 -1.833,-1.771c-0.389,-0.806 -0.625,-1.716 -0.708,-2.729c-0.084,-1.014 -0.125,-2.327 -0.125,-3.938l-0,-9.833l-2.959,-0c-0.527,-0 -0.791,-0.278 -0.791,-0.834l-0,-3.458c-0,-0.556 0.264,-0.833 0.791,-0.833l2.959,-0l-0,-5.542c-0,-0.556 0.278,-0.833 0.833,-0.833l3.833,-0c0.528,-0 0.792,0.277 0.792,0.833l0,5.542l3.542,-0c0.333,-0 0.548,0.062 0.646,0.187c0.097,0.125 0.145,0.34 0.145,0.646l0,3.458c0,0.306 -0.048,0.521 -0.145,0.646c-0.098,0.125 -0.313,0.188 -0.646,0.188l-3.542,-0l0,11.771c0,0.625 0.028,1.034 0.083,1.229c0.112,0.527 0.348,0.861 0.709,1c0.361,0.139 0.75,0.18 1.166,0.125c0.417,-0.056 0.82,-0.153 1.209,-0.292c0.389,-0.139 0.694,-0.264 0.916,-0.375c0.223,-0.111 0.389,-0.118 0.5,-0.021c0.112,0.097 0.181,0.299 0.209,0.604l0.375,3.125c0.028,0.25 0.014,0.452 -0.042,0.605c-0.055,0.152 -0.208,0.284 -0.458,0.395Z" style="fill:#fefefe;fill-rule:nonzero;"/><path d="M419.604,284.583c-0.305,0 -0.507,-0.041 -0.604,-0.125c-0.097,-0.083 -0.146,-0.236 -0.146,-0.458l0,-1.583c-0.25,0.389 -0.576,0.743 -0.979,1.062c-0.403,0.32 -0.84,0.59 -1.313,0.813c-0.472,0.222 -0.958,0.402 -1.458,0.541c-0.5,0.139 -0.972,0.209 -1.417,0.209c-2.722,-0 -4.763,-0.806 -6.125,-2.417c-1.361,-1.611 -2.041,-3.903 -2.041,-6.875l-0,-13.833c-0,-0.306 0.055,-0.528 0.166,-0.667c0.112,-0.139 0.32,-0.208 0.625,-0.208l3.834,-0c0.333,-0 0.555,0.09 0.666,0.271c0.112,0.18 0.167,0.395 0.167,0.645l0,13.084c0,0.972 0.077,1.771 0.229,2.396c0.153,0.625 0.368,1.125 0.646,1.5c0.278,0.375 0.618,0.638 1.021,0.791c0.403,0.153 0.854,0.229 1.354,0.229c1.222,0 2.257,-0.479 3.104,-1.437c0.848,-0.958 1.271,-2.452 1.271,-4.479l0,-12.125c0,-0.306 0.056,-0.528 0.167,-0.667c0.111,-0.139 0.319,-0.208 0.625,-0.208l3.875,-0c0.333,-0 0.548,0.097 0.646,0.291c0.097,0.195 0.145,0.417 0.145,0.667l0,16.708c0,0.834 0.014,1.702 0.042,2.605c0.028,0.902 0.042,1.701 0.042,2.395c-0,0.361 -0.035,0.598 -0.104,0.709c-0.07,0.111 -0.299,0.166 -0.688,0.166l-3.75,0Z" style="fill:#fefefe;fill-rule:nonzero;"/><path d="M441.729,266.167c-0.528,-0.223 -1.014,-0.354 -1.458,-0.396c-0.445,-0.042 -0.834,-0.007 -1.167,0.104c-0.667,0.222 -1.201,0.583 -1.604,1.083c-0.403,0.5 -0.708,1.084 -0.917,1.75c-0.208,0.667 -0.34,1.361 -0.396,2.084c-0.055,0.722 -0.083,1.416 -0.083,2.083l0,10.75c0,0.333 -0.048,0.563 -0.146,0.688c-0.097,0.125 -0.298,0.187 -0.604,0.187l-4,0c-0.305,0 -0.5,-0.056 -0.583,-0.167c-0.084,-0.111 -0.125,-0.361 -0.125,-0.75l-0,-16.5c-0,-0.889 -0.014,-1.819 -0.042,-2.791c-0.028,-0.973 -0.042,-1.778 -0.042,-2.417c0,-0.361 0.056,-0.597 0.167,-0.708c0.111,-0.111 0.32,-0.167 0.625,-0.167l4,0c0.417,0 0.625,0.222 0.625,0.667l0,1.583c0.361,-0.528 0.82,-1.042 1.375,-1.542c0.556,-0.5 1.139,-0.805 1.75,-0.916c0.583,-0.111 1.16,-0.146 1.729,-0.104c0.57,0.041 1.007,0.173 1.313,0.395c0.139,0.111 0.229,0.216 0.271,0.313c0.041,0.097 0.062,0.257 0.062,0.479l0,3.625c0,0.306 -0.055,0.528 -0.167,0.667c-0.111,0.139 -0.305,0.139 -0.583,-0Z" style="fill:#fefefe;fill-rule:nonzero;"/><path d="M463.854,273.625c-0.028,0.333 -0.104,0.59 -0.229,0.771c-0.125,0.18 -0.354,0.271 -0.688,0.271l-13.041,-0c0.194,1.861 0.785,3.236 1.771,4.125c0.986,0.889 2.159,1.361 3.52,1.416c1.278,0.056 2.396,-0.069 3.355,-0.375c0.958,-0.305 1.882,-0.736 2.77,-1.291c0.389,-0.25 0.653,-0.32 0.792,-0.209c0.139,0.111 0.208,0.403 0.208,0.875l0,3.125c0,0.306 -0.034,0.514 -0.104,0.625c-0.069,0.111 -0.229,0.264 -0.479,0.459c-0.805,0.555 -1.826,0.972 -3.062,1.25c-1.236,0.277 -2.452,0.416 -3.646,0.416c-3.334,0 -5.965,-1.069 -7.896,-3.208c-1.931,-2.139 -2.896,-5.181 -2.896,-9.125c0,-1.472 0.195,-2.944 0.583,-4.417c0.389,-1.472 1.014,-2.798 1.875,-3.979c0.862,-1.18 1.917,-2.139 3.167,-2.875c1.25,-0.736 2.736,-1.104 4.458,-1.104c1.75,0 3.23,0.319 4.438,0.958c1.208,0.639 2.194,1.5 2.958,2.584c0.764,1.083 1.313,2.34 1.646,3.771c0.333,1.43 0.5,2.951 0.5,4.562l0,1.375Zm-9.417,-8.417c-0.583,0 -1.125,0.139 -1.625,0.417c-0.5,0.278 -0.937,0.639 -1.312,1.083c-0.375,0.445 -0.701,0.959 -0.979,1.542c-0.278,0.583 -0.459,1.194 -0.542,1.833l8.458,0c0,-0.555 -0.09,-1.125 -0.27,-1.708c-0.181,-0.583 -0.431,-1.104 -0.75,-1.562c-0.32,-0.459 -0.73,-0.841 -1.23,-1.146c-0.5,-0.306 -1.083,-0.459 -1.75,-0.459Z" style="fill:#fefefe;fill-rule:nonzero;"/><path d="M478.896,283.625c-0.722,0.556 -1.542,0.944 -2.458,1.167c-0.917,0.222 -1.889,0.347 -2.917,0.375c-0.528,-0 -1.097,-0.035 -1.708,-0.104c-0.612,-0.07 -1.195,-0.153 -1.75,-0.25c-0.556,-0.098 -1.07,-0.216 -1.542,-0.355c-0.472,-0.139 -0.833,-0.264 -1.083,-0.375c-0.306,-0.139 -0.507,-0.257 -0.605,-0.354c-0.097,-0.097 -0.132,-0.298 -0.104,-0.604l0.334,-3.042c0.027,-0.333 0.097,-0.541 0.208,-0.625c0.111,-0.083 0.319,-0.069 0.625,0.042c0.861,0.306 1.757,0.569 2.687,0.792c0.931,0.222 1.896,0.333 2.896,0.333c1,0 1.736,-0.25 2.209,-0.75c0.472,-0.5 0.708,-1.125 0.708,-1.875c-0,-0.528 -0.243,-1.049 -0.729,-1.562c-0.486,-0.514 -1.063,-0.994 -1.73,-1.438c-0.666,-0.444 -1.347,-0.854 -2.041,-1.229c-0.695,-0.375 -1.25,-0.688 -1.667,-0.938c-0.917,-0.555 -1.687,-1.27 -2.312,-2.145c-0.625,-0.875 -0.938,-1.896 -0.938,-3.063c0,-1.25 0.215,-2.326 0.646,-3.229c0.431,-0.903 1,-1.646 1.708,-2.229c0.709,-0.584 1.528,-1.014 2.459,-1.292c0.93,-0.278 1.882,-0.417 2.854,-0.417c0.5,0 1.035,0.035 1.604,0.105c0.569,0.069 1.111,0.159 1.625,0.27c0.514,0.111 0.993,0.236 1.437,0.375c0.445,0.139 0.792,0.264 1.042,0.375c0.278,0.139 0.438,0.264 0.479,0.375c0.042,0.111 0.049,0.278 0.021,0.5l-0.375,3.167c-0.055,0.333 -0.153,0.521 -0.292,0.563c-0.138,0.041 -0.361,-0.007 -0.666,-0.146c-1.445,-0.695 -2.986,-1.014 -4.625,-0.959c-0.889,0.028 -1.535,0.243 -1.938,0.646c-0.402,0.403 -0.604,0.965 -0.604,1.688c0,0.305 0.181,0.68 0.542,1.125c0.361,0.444 1,0.916 1.916,1.416c0.862,0.473 1.639,0.924 2.334,1.355c0.694,0.43 1.222,0.77 1.583,1.02c1,0.778 1.757,1.556 2.271,2.334c0.514,0.777 0.771,1.819 0.771,3.125c-0,1.222 -0.236,2.326 -0.709,3.312c-0.472,0.986 -1.194,1.827 -2.166,2.521Z" style="fill:#fefefe;fill-rule:nonzero;"/><path d="M508.771,257.667l-0,26c-0,0.333 -0.063,0.555 -0.188,0.666c-0.125,0.111 -0.326,0.167 -0.604,0.167l-4.083,0c-0.278,0 -0.479,-0.056 -0.604,-0.167c-0.125,-0.111 -0.188,-0.333 -0.188,-0.666l0,-26l-7.375,-0c-0.305,-0 -0.521,-0.056 -0.646,-0.167c-0.125,-0.111 -0.187,-0.319 -0.187,-0.625l-0,-3.625c-0,-0.556 0.278,-0.833 0.833,-0.833l20.5,-0c0.361,-0 0.59,0.062 0.688,0.187c0.097,0.125 0.145,0.34 0.145,0.646l0,3.625c0,0.306 -0.048,0.514 -0.145,0.625c-0.098,0.111 -0.327,0.167 -0.688,0.167l-7.458,-0Z" style="fill:#fefefe;fill-rule:nonzero;"/><path d="M527.604,266.167c-0.528,-0.223 -1.014,-0.354 -1.458,-0.396c-0.445,-0.042 -0.834,-0.007 -1.167,0.104c-0.667,0.222 -1.201,0.583 -1.604,1.083c-0.403,0.5 -0.708,1.084 -0.917,1.75c-0.208,0.667 -0.34,1.361 -0.395,2.084c-0.056,0.722 -0.084,1.416 -0.084,2.083l0,10.75c0,0.333 -0.048,0.563 -0.146,0.688c-0.097,0.125 -0.298,0.187 -0.604,0.187l-4,0c-0.305,0 -0.5,-0.056 -0.583,-0.167c-0.084,-0.111 -0.125,-0.361 -0.125,-0.75l-0,-16.5c-0,-0.889 -0.014,-1.819 -0.042,-2.791c-0.028,-0.973 -0.042,-1.778 -0.042,-2.417c0,-0.361 0.056,-0.597 0.167,-0.708c0.111,-0.111 0.32,-0.167 0.625,-0.167l4,0c0.417,0 0.625,0.222 0.625,0.667l0,1.583c0.361,-0.528 0.82,-1.042 1.375,-1.542c0.556,-0.5 1.139,-0.805 1.75,-0.916c0.583,-0.111 1.16,-0.146 1.729,-0.104c0.57,0.041 1.007,0.173 1.313,0.395c0.139,0.111 0.229,0.216 0.271,0.313c0.041,0.097 0.062,0.257 0.062,0.479l0,3.625c0,0.306 -0.055,0.528 -0.167,0.667c-0.111,0.139 -0.305,0.139 -0.583,-0Z" style="fill:#fefefe;fill-rule:nonzero;"/><path d="M543.979,284.583c-0.25,0 -0.41,-0.027 -0.479,-0.083c-0.069,-0.056 -0.104,-0.222 -0.104,-0.5l-0,-1.792c-0.472,0.75 -1.243,1.389 -2.313,1.917c-1.069,0.528 -2.132,0.792 -3.187,0.792c-1.139,-0 -2.236,-0.16 -3.292,-0.479c-1.055,-0.32 -1.923,-0.82 -2.604,-1.5c-0.681,-0.681 -1.215,-1.5 -1.604,-2.459c-0.389,-0.958 -0.583,-2.048 -0.583,-3.271c-0,-1.444 0.347,-2.75 1.041,-3.916c0.695,-1.167 1.618,-2.077 2.771,-2.729c1.153,-0.653 2.521,-1.125 4.104,-1.417c1.584,-0.292 3.334,-0.382 5.25,-0.271c-0.166,-2.194 -1.111,-3.403 -2.833,-3.625c-0.556,-0.056 -1.118,-0.042 -1.688,0.042c-0.569,0.083 -1.125,0.215 -1.666,0.396c-0.542,0.18 -1.063,0.388 -1.563,0.625c-0.5,0.236 -0.944,0.479 -1.333,0.729c-0.583,0.389 -1,0.583 -1.25,0.583c-0.25,0 -0.375,-0.278 -0.375,-0.833l-0,-3.459c-0,-0.361 0.035,-0.618 0.104,-0.77c0.069,-0.153 0.271,-0.313 0.604,-0.48c0.833,-0.416 1.813,-0.805 2.938,-1.166c1.125,-0.361 2.451,-0.542 3.979,-0.542c2.833,0 4.951,0.722 6.354,2.167c1.403,1.444 2.104,3.68 2.104,6.708l0,10.688c0,0.43 0.007,0.868 0.021,1.312c0.014,0.444 0.028,0.868 0.042,1.271c0.014,0.403 0.034,0.757 0.062,1.062c0.056,0.556 0.028,0.861 -0.083,0.917c-0.111,0.056 -0.306,0.083 -0.584,0.083l-3.833,0Zm-0.583,-11.5c-1.584,0.028 -2.889,0.146 -3.917,0.355c-1.028,0.208 -1.854,0.493 -2.479,0.854c-0.625,0.361 -1.049,0.791 -1.271,1.291c-0.222,0.5 -0.333,1.056 -0.333,1.667c-0,0.889 0.264,1.576 0.791,2.063c0.528,0.486 1.264,0.729 2.209,0.729c1.5,-0 2.701,-0.549 3.604,-1.646c0.903,-1.097 1.368,-2.868 1.396,-5.313Z" style="fill:#fefefe;fill-rule:nonzero;"/><path d="M568.063,282.417c-0.223,0.305 -0.528,0.611 -0.917,0.916c-0.389,0.306 -0.813,0.57 -1.271,0.792c-0.458,0.222 -0.938,0.403 -1.438,0.542c-0.5,0.139 -1,0.208 -1.5,0.208c-3.055,0 -5.409,-1.104 -7.062,-3.312c-1.653,-2.209 -2.479,-5.244 -2.479,-9.105c-0,-1.889 0.222,-3.59 0.667,-5.104c0.444,-1.514 1.076,-2.798 1.895,-3.854c0.82,-1.056 1.82,-1.868 3,-2.437c1.181,-0.57 2.521,-0.855 4.021,-0.855c0.889,0 1.806,0.223 2.75,0.667c0.945,0.444 1.709,0.986 2.292,1.625l-0,-11.625c-0,-0.389 0.042,-0.632 0.125,-0.729c0.083,-0.097 0.292,-0.146 0.625,-0.146l3.958,0c0.306,0 0.514,0.049 0.625,0.146c0.111,0.097 0.167,0.34 0.167,0.729l-0,32.792c-0,0.389 -0.063,0.632 -0.188,0.729c-0.125,0.097 -0.354,0.146 -0.687,0.146l-3.875,-0c-0.278,-0 -0.465,-0.049 -0.563,-0.146c-0.097,-0.097 -0.145,-0.299 -0.145,-0.604l-0,-1.375Zm-4.5,-17.209c-1.389,0 -2.5,0.584 -3.334,1.75c-0.833,1.167 -1.25,3 -1.25,5.5c0,2.639 0.431,4.528 1.292,5.667c0.861,1.139 1.958,1.708 3.291,1.708c0.584,0 1.146,-0.145 1.688,-0.437c0.542,-0.292 1.021,-0.736 1.437,-1.333c0.417,-0.598 0.757,-1.362 1.021,-2.292c0.264,-0.931 0.396,-2.035 0.396,-3.313c0,-1.333 -0.118,-2.458 -0.354,-3.375c-0.236,-0.916 -0.563,-1.659 -0.979,-2.229c-0.417,-0.569 -0.903,-0.986 -1.458,-1.25c-0.556,-0.264 -1.139,-0.396 -1.75,-0.396Z" style="fill:#fefefe;fill-rule:nonzero;"/><path d="M597.688,273.625c-0.028,0.333 -0.105,0.59 -0.23,0.771c-0.125,0.18 -0.354,0.271 -0.687,0.271l-13.042,-0c0.195,1.861 0.785,3.236 1.771,4.125c0.986,0.889 2.16,1.361 3.521,1.416c1.278,0.056 2.396,-0.069 3.354,-0.375c0.958,-0.305 1.882,-0.736 2.771,-1.291c0.389,-0.25 0.653,-0.32 0.792,-0.209c0.138,0.111 0.208,0.403 0.208,0.875l-0,3.125c-0,0.306 -0.035,0.514 -0.104,0.625c-0.07,0.111 -0.229,0.264 -0.479,0.459c-0.806,0.555 -1.827,0.972 -3.063,1.25c-1.236,0.277 -2.451,0.416 -3.646,0.416c-3.333,0 -5.965,-1.069 -7.896,-3.208c-1.93,-2.139 -2.895,-5.181 -2.895,-9.125c-0,-1.472 0.194,-2.944 0.583,-4.417c0.389,-1.472 1.014,-2.798 1.875,-3.979c0.861,-1.18 1.917,-2.139 3.167,-2.875c1.25,-0.736 2.736,-1.104 4.458,-1.104c1.75,0 3.229,0.319 4.437,0.958c1.209,0.639 2.195,1.5 2.959,2.584c0.764,1.083 1.312,2.34 1.646,3.771c0.333,1.43 0.5,2.951 0.5,4.562l-0,1.375Zm-9.417,-8.417c-0.583,0 -1.125,0.139 -1.625,0.417c-0.5,0.278 -0.938,0.639 -1.313,1.083c-0.375,0.445 -0.701,0.959 -0.979,1.542c-0.278,0.583 -0.458,1.194 -0.541,1.833l8.458,0c-0,-0.555 -0.09,-1.125 -0.271,-1.708c-0.181,-0.583 -0.431,-1.104 -0.75,-1.562c-0.319,-0.459 -0.729,-0.841 -1.229,-1.146c-0.5,-0.306 -1.083,-0.459 -1.75,-0.459Z" style="fill:#fefefe;fill-rule:nonzero;"/><path d="M615.854,284.542c-0.666,-0 -1.069,-0.084 -1.208,-0.25c-0.139,-0.167 -0.208,-0.598 -0.208,-1.292l-0,-29.125c-0,-0.639 0.062,-1.042 0.187,-1.208c0.125,-0.167 0.507,-0.25 1.146,-0.25l14.833,-0c0.472,-0 0.736,0.083 0.792,0.25c0.055,0.166 0.083,0.416 0.083,0.75l0,3.25c0,0.389 -0.041,0.646 -0.125,0.771c-0.083,0.125 -0.333,0.187 -0.75,0.187l-10.5,0l0,7.917l9.959,-0c0.444,-0 0.701,0.083 0.77,0.25c0.07,0.166 0.105,0.416 0.105,0.75l-0,3.25c-0,0.389 -0.049,0.646 -0.146,0.771c-0.098,0.125 -0.341,0.187 -0.729,0.187l-9.959,0l0,8.583l10.917,0c0.444,0 0.701,0.07 0.771,0.209c0.069,0.139 0.104,0.389 0.104,0.75l-0,3.25c-0,0.361 -0.035,0.618 -0.104,0.771c-0.07,0.152 -0.327,0.229 -0.771,0.229l-15.167,-0Z" style="fill:#fefefe;fill-rule:nonzero;"/><path d="M640.938,284c-0.139,0.222 -0.257,0.354 -0.355,0.396c-0.097,0.042 -0.215,0.062 -0.354,0.062l-4.708,0c-0.306,0 -0.472,-0.062 -0.5,-0.187c-0.028,-0.125 0.083,-0.382 0.333,-0.771l7.042,-11.292l-6.583,-10.208c-0.278,-0.417 -0.389,-0.694 -0.334,-0.833c0.056,-0.139 0.32,-0.209 0.792,-0.209l4.458,0c0.334,0 0.584,0.139 0.75,0.417l3.875,6.375l3.875,-6.375c0.167,-0.278 0.417,-0.417 0.75,-0.417l4.459,0c0.472,0 0.736,0.07 0.791,0.209c0.056,0.139 -0.055,0.416 -0.333,0.833l-6.583,10.208l7.041,11.292c0.25,0.389 0.361,0.646 0.334,0.771c-0.028,0.125 -0.195,0.187 -0.5,0.187l-4.709,0c-0.139,0 -0.257,-0.02 -0.354,-0.062c-0.097,-0.042 -0.215,-0.174 -0.354,-0.396l-4.417,-7.333l-4.416,7.333Z" style="fill:#fefefe;fill-rule:nonzero;"/><path d="M674.688,284.333c-0.306,0.139 -0.688,0.264 -1.146,0.375c-0.459,0.111 -0.959,0.202 -1.5,0.271c-0.542,0.07 -1.104,0.111 -1.688,0.125c-0.583,0.014 -1.139,-0.007 -1.666,-0.062c-1.75,-0.139 -3.299,-0.542 -4.646,-1.209c-1.348,-0.666 -2.479,-1.534 -3.396,-2.604c-0.917,-1.069 -1.611,-2.326 -2.083,-3.771c-0.473,-1.444 -0.709,-3.014 -0.709,-4.708c0,-1.778 0.278,-3.417 0.834,-4.917c0.555,-1.5 1.34,-2.791 2.354,-3.875c1.014,-1.083 2.236,-1.923 3.666,-2.52c1.431,-0.598 3.021,-0.896 4.771,-0.896c0.806,-0 1.688,0.055 2.646,0.166c0.958,0.111 1.84,0.306 2.646,0.584c0.25,0.083 0.396,0.18 0.437,0.291c0.042,0.111 0.049,0.32 0.021,0.625l-0.416,3.209c-0.056,0.333 -0.146,0.555 -0.271,0.666c-0.125,0.111 -0.396,0.098 -0.813,-0.041c-0.583,-0.223 -1.291,-0.382 -2.125,-0.479c-0.833,-0.098 -1.569,-0.132 -2.208,-0.105c-1.917,0.056 -3.396,0.743 -4.438,2.063c-1.041,1.319 -1.562,3.062 -1.562,5.229c-0,2.083 0.493,3.764 1.479,5.042c0.986,1.277 2.368,2.014 4.146,2.208c0.889,0.139 1.771,0.16 2.646,0.063c0.875,-0.098 1.646,-0.257 2.312,-0.48c0.445,-0.139 0.715,-0.173 0.813,-0.104c0.097,0.07 0.159,0.257 0.187,0.563l0.25,3.208c0.028,0.333 0.007,0.563 -0.062,0.688c-0.07,0.125 -0.229,0.256 -0.479,0.395Z" style="fill:#fefefe;fill-rule:nonzero;"/><path d="M693.354,284.5c-0.305,0 -0.521,-0.056 -0.646,-0.167c-0.125,-0.111 -0.187,-0.333 -0.187,-0.666l-0,-13.25c-0,-3.528 -1.042,-5.292 -3.125,-5.292c-1.167,0 -2.125,0.229 -2.875,0.688c-0.75,0.458 -1.292,1.09 -1.625,1.895l-0,15.959c-0,0.333 -0.07,0.555 -0.209,0.666c-0.138,0.111 -0.347,0.167 -0.625,0.167l-3.833,0c-0.305,0 -0.514,-0.056 -0.625,-0.167c-0.111,-0.111 -0.167,-0.333 -0.167,-0.666l0,-32.709c0,-0.555 0.264,-0.833 0.792,-0.833l3.833,0c0.556,0 0.834,0.278 0.834,0.833l-0,11.25c0.722,-0.611 1.514,-1.104 2.375,-1.479c0.861,-0.375 1.68,-0.562 2.458,-0.562c2.806,-0 4.882,0.819 6.229,2.458c1.348,1.639 2.021,4.222 2.021,7.75l0,13.292c0,0.333 -0.062,0.555 -0.187,0.666c-0.125,0.111 -0.327,0.167 -0.605,0.167l-3.833,0Z" style="fill:#fefefe;fill-rule:nonzero;"/><path d="M716.979,284.583c-0.25,0 -0.41,-0.027 -0.479,-0.083c-0.069,-0.056 -0.104,-0.222 -0.104,-0.5l-0,-1.792c-0.472,0.75 -1.243,1.389 -2.313,1.917c-1.069,0.528 -2.132,0.792 -3.187,0.792c-1.139,-0 -2.236,-0.16 -3.292,-0.479c-1.055,-0.32 -1.923,-0.82 -2.604,-1.5c-0.681,-0.681 -1.215,-1.5 -1.604,-2.459c-0.389,-0.958 -0.583,-2.048 -0.583,-3.271c-0,-1.444 0.347,-2.75 1.041,-3.916c0.695,-1.167 1.618,-2.077 2.771,-2.729c1.153,-0.653 2.521,-1.125 4.104,-1.417c1.584,-0.292 3.334,-0.382 5.25,-0.271c-0.166,-2.194 -1.111,-3.403 -2.833,-3.625c-0.556,-0.056 -1.118,-0.042 -1.688,0.042c-0.569,0.083 -1.125,0.215 -1.666,0.396c-0.542,0.18 -1.063,0.388 -1.563,0.625c-0.5,0.236 -0.944,0.479 -1.333,0.729c-0.583,0.389 -1,0.583 -1.25,0.583c-0.25,0 -0.375,-0.278 -0.375,-0.833l-0,-3.459c-0,-0.361 0.035,-0.618 0.104,-0.77c0.069,-0.153 0.271,-0.313 0.604,-0.48c0.833,-0.416 1.813,-0.805 2.938,-1.166c1.125,-0.361 2.451,-0.542 3.979,-0.542c2.833,0 4.951,0.722 6.354,2.167c1.403,1.444 2.104,3.68 2.104,6.708l0,10.688c0,0.43 0.007,0.868 0.021,1.312c0.014,0.444 0.028,0.868 0.042,1.271c0.014,0.403 0.034,0.757 0.062,1.062c0.056,0.556 0.028,0.861 -0.083,0.917c-0.111,0.056 -0.306,0.083 -0.584,0.083l-3.833,0Zm-0.583,-11.5c-1.584,0.028 -2.889,0.146 -3.917,0.355c-1.028,0.208 -1.854,0.493 -2.479,0.854c-0.625,0.361 -1.049,0.791 -1.271,1.291c-0.222,0.5 -0.333,1.056 -0.333,1.667c-0,0.889 0.264,1.576 0.791,2.063c0.528,0.486 1.264,0.729 2.209,0.729c1.5,-0 2.701,-0.549 3.604,-1.646c0.903,-1.097 1.368,-2.868 1.396,-5.313Z" style="fill:#fefefe;fill-rule:nonzero;"/><path d="M732.813,283.667c-0,0.333 -0.056,0.555 -0.167,0.666c-0.111,0.111 -0.32,0.167 -0.625,0.167l-3.875,0c-0.333,0 -0.556,-0.069 -0.667,-0.208c-0.111,-0.139 -0.166,-0.361 -0.166,-0.667l-0,-16.292c-0,-1.055 0.006,-2.125 0.02,-3.208c0.014,-1.083 -0.02,-1.903 -0.104,-2.458c-0.055,-0.306 -0.028,-0.5 0.084,-0.584c0.111,-0.083 0.361,-0.125 0.75,-0.125l3.958,0c0.305,0 0.5,0.028 0.583,0.084c0.084,0.055 0.125,0.208 0.125,0.458l0,1.583c0.584,-0.611 1.34,-1.173 2.271,-1.687c0.931,-0.514 1.882,-0.771 2.854,-0.771c2.778,0 4.813,0.792 6.104,2.375c1.292,1.583 1.938,3.889 1.938,6.917l-0,13.75c-0,0.333 -0.056,0.555 -0.167,0.666c-0.111,0.111 -0.319,0.167 -0.625,0.167l-3.875,0c-0.555,0 -0.833,-0.292 -0.833,-0.875l-0,-12.875c-0,-3.361 -1.014,-5.042 -3.042,-5.042c-1.416,0 -2.528,0.459 -3.333,1.375c-0.806,0.917 -1.208,2.167 -1.208,3.75l-0,12.834Z" style="fill:#fefefe;fill-rule:nonzero;"/><path d="M760.854,291.5c-1.111,0 -2.243,-0.118 -3.396,-0.354c-1.152,-0.236 -2.257,-0.549 -3.312,-0.938c-0.278,-0.111 -0.452,-0.229 -0.521,-0.354c-0.069,-0.125 -0.09,-0.34 -0.062,-0.646l0.25,-3.625c0.027,-0.333 0.097,-0.555 0.208,-0.666c0.111,-0.111 0.403,-0.056 0.875,0.166c0.833,0.417 1.792,0.764 2.875,1.042c1.083,0.278 2.194,0.389 3.333,0.333c1.556,-0.055 2.834,-0.555 3.834,-1.5c1,-0.944 1.569,-2.291 1.708,-4.041c-0.722,0.833 -1.611,1.444 -2.667,1.833c-1.055,0.389 -2.028,0.569 -2.916,0.542c-1.445,-0.028 -2.75,-0.32 -3.917,-0.875c-1.167,-0.556 -2.16,-1.327 -2.979,-2.313c-0.82,-0.986 -1.452,-2.146 -1.896,-3.479c-0.445,-1.333 -0.667,-2.792 -0.667,-4.375c0,-3.639 0.827,-6.493 2.479,-8.562c1.653,-2.07 3.993,-3.105 7.021,-3.105c0.528,0 1.07,0.07 1.625,0.209c0.556,0.139 1.084,0.319 1.584,0.541c0.5,0.223 0.958,0.48 1.375,0.771c0.416,0.292 0.736,0.59 0.958,0.896l-0,-1.583c-0,-0.473 0.222,-0.709 0.667,-0.709l3.833,0c0.305,0 0.507,0.063 0.604,0.188c0.097,0.125 0.146,0.368 0.146,0.729l-0,17c-0,4.139 -0.979,7.319 -2.938,9.542c-1.958,2.222 -4.659,3.333 -8.104,3.333Zm1.084,-25.875c-1.389,0 -2.514,0.486 -3.375,1.458c-0.862,0.973 -1.292,2.667 -1.292,5.084c-0,0.944 0.132,1.798 0.396,2.562c0.264,0.764 0.604,1.41 1.021,1.938c0.416,0.527 0.895,0.93 1.437,1.208c0.542,0.278 1.09,0.417 1.646,0.417c1.333,-0 2.444,-0.549 3.333,-1.646c0.889,-1.097 1.334,-2.604 1.334,-4.521c-0,-2.028 -0.438,-3.618 -1.313,-4.771c-0.875,-1.153 -1.937,-1.729 -3.187,-1.729Z" style="fill:#fefefe;fill-rule:nonzero;"/><path d="M795.938,273.625c-0.028,0.333 -0.105,0.59 -0.23,0.771c-0.125,0.18 -0.354,0.271 -0.687,0.271l-13.042,-0c0.195,1.861 0.785,3.236 1.771,4.125c0.986,0.889 2.16,1.361 3.521,1.416c1.278,0.056 2.396,-0.069 3.354,-0.375c0.958,-0.305 1.882,-0.736 2.771,-1.291c0.389,-0.25 0.653,-0.32 0.792,-0.209c0.138,0.111 0.208,0.403 0.208,0.875l-0,3.125c-0,0.306 -0.035,0.514 -0.104,0.625c-0.07,0.111 -0.229,0.264 -0.479,0.459c-0.806,0.555 -1.827,0.972 -3.063,1.25c-1.236,0.277 -2.451,0.416 -3.646,0.416c-3.333,0 -5.965,-1.069 -7.896,-3.208c-1.93,-2.139 -2.895,-5.181 -2.895,-9.125c-0,-1.472 0.194,-2.944 0.583,-4.417c0.389,-1.472 1.014,-2.798 1.875,-3.979c0.861,-1.18 1.917,-2.139 3.167,-2.875c1.25,-0.736 2.736,-1.104 4.458,-1.104c1.75,0 3.229,0.319 4.437,0.958c1.209,0.639 2.195,1.5 2.959,2.584c0.764,1.083 1.312,2.34 1.646,3.771c0.333,1.43 0.5,2.951 0.5,4.562l-0,1.375Zm-9.417,-8.417c-0.583,0 -1.125,0.139 -1.625,0.417c-0.5,0.278 -0.938,0.639 -1.313,1.083c-0.375,0.445 -0.701,0.959 -0.979,1.542c-0.278,0.583 -0.458,1.194 -0.541,1.833l8.458,0c-0,-0.555 -0.09,-1.125 -0.271,-1.708c-0.181,-0.583 -0.431,-1.104 -0.75,-1.562c-0.319,-0.459 -0.729,-0.841 -1.229,-1.146c-0.5,-0.306 -1.083,-0.459 -1.75,-0.459Z" style="fill:#fefefe;fill-rule:nonzero;"/></g></g></svg>