<?xml version="1.0" encoding="utf-8"?>
<!-- Svg Vector Icons : http://www.onlinewebfonts.com/icon -->
<!DOCTYPE svg PUBLIC "-//W3C//DTD SVG 1.1//EN" "http://www.w3.org/Graphics/SVG/1.1/DTD/svg11.dtd">
<svg version="1.1" xmlns="http://www.w3.org/2000/svg" xmlns:xlink="http://www.w3.org/1999/xlink" x="0px" y="0px" viewBox="0 0 1000 1000" enable-background="new 0 0 1000 1000" xml:space="preserve">
<metadata> Svg Vector Icons : http://www.onlinewebfonts.com/icon </metadata>
<g><g transform="translate(0.000000,511.000000) scale(0.100000,-0.100000)"><path d="M2904.7,4993.8c-142.2-44.2-244.1-132.6-305.6-271c-38.4-82.6-40.4-123-40.4-918.6c0-703.4,3.9-841.7,28.8-901.3c78.8-190.2,244.1-299.8,442-299.8c194.1,0,349.8,98,436.2,271c44.2,90.3,44.2,92.3,44.2,916.7c0,914.8,0,916.7-123,1053.1C3264,4980.4,3064.2,5041.9,2904.7,4993.8z"/><path d="M6809.7,4988c-99.9-34.6-246-176.8-286.4-280.6c-30.7-82.6-34.6-163.4-34.6-916.7v-826.4l44.2-90.3c90.3-182.6,305.6-301.7,493.9-274.8c128.8,21.1,276.7,117.2,345.9,228.7l57.7,94.2l5.8,847.5c3.8,751.4,1.9,857.1-26.9,932.1c-40.4,107.6-126.9,205.6-226.8,255.6C7092.2,5003.4,6902,5018.8,6809.7,4988z"/><path d="M1017.5,3756.2c-228.7-78.8-417-240.2-522.7-449.7c-90.3-178.7-88.4-76.9-88.4-3784c0-2409.9,5.8-3514.9,21.1-3593.7c44.2-244.1,221-492,434.3-607.3c215.2-119.2-38.4-111.5,4137.6-111.5c4174.1,0,3922.3-5.8,4135.6,109.5c213.3,115.3,392,367.1,436.3,609.2c30.7,163.3,28.8,7022.1,0,7164.3c-69.2,326.7-320.9,595.8-640,680.3c-71.1,19.2-242.1,26.9-640,26.9h-543.8V3393c0-284.4-7.7-440.1-26.9-507.3c-61.5-228.7-213.3-415.1-430.5-520.8c-99.9-50-128.8-53.8-320.9-53.8c-199.9,0-219.1,3.8-340.2,63.4c-161.4,78.8-320.9,246-382.4,401.7c-42.3,103.8-46.1,144.1-51.9,568.8l-5.8,455.5H4997.5H3807.9v-418.9c0-326.7-7.7-442-30.7-524.7c-61.5-209.5-226.8-399.7-426.6-493.9c-98-46.1-132.6-51.9-320.9-51.9c-192.2,0-221,3.8-320.9,53.8c-222.9,109.5-388.2,315.2-436.2,547.7c-11.5,55.7-21.1,278.7-21.1,493.9v394h-551.5C1173.2,3798.5,1140.5,3796.5,1017.5,3756.2z M8992.8-1401.8c-5.8-2594.4-5.8-2629-44.2-2680.9c-21.1-26.9-63.4-67.3-96.1-86.5c-55.7-32.7-205.6-34.6-3853.1-34.6H1203.9l-69.2,44.2c-142.2,88.4-132.6-123-132.6,2778.9v2605.9h3997.3h3997.3L8992.8-1401.8z"/><path d="M2307,527.6c-142.2-75-171-148-171-443.9c0-219.1,3.9-255.6,42.3-322.9c23.1-40.4,73-94.2,111.5-117.2c63.4-40.4,86.5-42.3,518.9-42.3s455.5,1.9,518.9,42.3c38.4,23,88.4,76.9,111.5,117.2c36.5,67.3,42.3,103.8,42.3,320.9c0,228.7-3.8,251.8-48,328.6c-30.8,53.8-74.9,94.2-130.7,121.1c-76.9,36.5-115.3,40.4-497.7,40.4C2408.9,571.8,2387.7,569.9,2307,527.6z"/><path d="M4497.8,527.6c-142.2-75-171-148-171-443.9c0-219.1,3.8-255.6,42.3-322.9c23.1-40.4,73-94.2,111.5-117.2c63.4-40.4,86.5-42.3,518.9-42.3c432.4,0,455.5,1.9,518.9,42.3c38.4,23,88.4,76.9,111.5,117.2c38.4,67.3,42.3,103.8,42.3,322.9c0,296-28.8,369-171,443.9c-80.7,42.3-101.9,44.2-501.6,44.2C4599.7,571.8,4578.5,569.9,4497.8,527.6z"/><path d="M6688.6,527.6c-142.2-75-171-148-171-443.9c0-219.1,3.8-255.6,42.3-322.9c23.1-40.4,73-94.2,111.5-117.2c63.4-40.4,86.5-42.3,518.9-42.3c432.4,0,455.4,1.9,518.9,42.3c38.4,23,88.4,76.9,111.5,117.2c38.4,67.3,42.3,103.8,42.3,322.9c0,296-28.8,369-171.1,443.9c-80.7,42.3-101.8,44.2-501.6,44.2S6769.3,569.9,6688.6,527.6z"/><path d="M2308.9-1046.3c-142.2-73-173-148-173-445.8c0-219.1,3.9-255.6,42.3-322.9c23.1-40.4,73-94.2,111.5-117.2c63.4-40.4,86.5-42.3,520.8-42.3c449.7,0,453.5,0,522.7,48c124.9,86.5,148,153.7,148,434.3c0,296-28.8,369-171,443.9c-80.7,42.3-101.9,44.2-499.7,44.2C2416.5-1004,2389.6-1006,2308.9-1046.3z"/><path d="M4497.8-1048.2c-142.2-75-171-148-171-443.9c0-219.1,3.8-255.6,42.3-322.9c23.1-40.4,73-94.2,111.5-117.2c63.4-40.4,86.5-42.3,520.8-42.3c449.7,0,453.5,0,522.7,48c124.9,86.5,148,153.7,148,434.3c0,296-28.8,369-171,443.9c-80.7,42.3-101.9,44.2-501.6,44.2C4599.7-1004,4578.5-1006,4497.8-1048.2z"/><path d="M6688.6-1048.2c-142.2-75-171-148-171-443.9c0-219.1,3.8-255.6,42.3-322.9c23.1-40.4,73-94.2,111.5-117.2c63.4-40.4,86.5-42.3,518.9-42.3c432.4,0,455.4,1.9,518.9,42.3c38.4,23,88.4,76.9,111.5,117.2c38.4,67.3,42.3,103.8,42.3,322.9c0,296-28.8,369-171.1,443.9c-80.7,42.3-101.8,44.2-501.6,44.2S6769.3-1006,6688.6-1048.2z"/><path d="M2308.9-2622.2c-142.2-73-173-148-173-445.8c0-219.1,3.9-255.6,42.3-322.9c82.6-146,126.8-159.5,563.1-165.3c468.9-7.7,528.5,0,618.8,78.8c103.8,90.3,121.1,151.8,121.1,420.9c0,282.5-30.7,357.4-171,432.4c-80.7,42.3-101.9,44.2-499.7,44.2C2416.5-2579.9,2389.6-2581.8,2308.9-2622.2z"/><path d="M4499.7-2622.2c-142.2-73-173-148-173-445.8c0-219.1,3.8-255.6,42.3-322.9c23.1-40.4,73-94.2,111.5-117.2c63.4-40.4,86.5-42.3,520.8-42.3c449.7,0,453.5,0,522.7,48c124.9,86.5,148,153.7,148,434.3c0,296-28.8,369-171,443.9c-80.7,42.3-101.9,44.2-499.7,44.2C4607.4-2579.9,4580.5-2581.8,4499.7-2622.2z"/></g></g>
</svg>